{"title":"Rangrezz 2013 Hindi Movies DVDScr Sample Included ~ rDX","uid":8293433,"size":715456512,"categoryP":"video","categoryS":"movies","magnet":"?xt=urn:btih:df09ddde2262d750c2ff3bd3aee5bedc2314f110&amp;dn=Rangrezz+2013+Hindi+Movies+DVDScr+Sample+Included+%7E+rDX&amp;tr=udp%3A%2F%2Ftracker.openbittorrent.com%3A80&amp;tr=udp%3A%2F%2Fopen.demonii.com%3A1337&amp;tr=udp%3A%2F%2Ftracker.coppersurfer.tk%3A6969&amp;tr=udp%3A%2F%2Fexodus.desync.com%3A6969","seeders":0,"leechers":1,"uploader":"basicssom","files":2,"time":1364108265,"description":"Rangrezz 2013 Hindi Movies DVDScr Sample Included ~ rDX\n\nScreen Shots :\n &lt;a href=&quot;\nhttp://myimghosting.serveftp.com/13/Rangrezz.html&quot; rel=&quot;nofollow&quot; target=&quot;_NEW&quot;&gt;\nhttp://myimghosting.serveftp.com/13/Rangrezz.html&lt;/a&gt;\n &lt;a href=&quot;\nhttp://myimghost.cwahi.net/Rangrezz.html&quot; rel=&quot;nofollow&quot; target=&quot;_NEW&quot;&gt;\nhttp://myimghost.cwahi.net/Rangrezz.html&lt;/a&gt;\n\n\nFormat                                   : MPEG-PS\nFile size                                : 673 MiB\nDuration                                 : 1h 58mn\nOverall bit rate mode                    : Variable\nOverall bit rate                         : 797 Kbps\n\nVideo\nID                                       : 224 (0xE0)\nFormat                                   : MPEG Video\nFormat version                           : Version 2\nFormat profile                           : Main@Main\nFormat settings, BVOP                    : Yes\nFormat settings, Matrix                  : Default\nFormat settings, GOP                     : M=3, N=13\nDuration                                 : 1h 58mn\nBit rate mode                            : Variable\nBit rate                                 : 653 Kbps\nMaximum bit rate                         : 9 672 Kbps\nWidth                                    : 352 pixels\nHeight                                   : 288 pixels\nDisplay aspect ratio                     : 4:3\nFrame rate                               : 25.000 fps\nStandard                                 : PAL\nColor space                              : YUV\nChroma subsampling                       : 4:2:0\nBit depth                                : 8 bits\nScan type                                : Progressive\nCompression mode                         : Lossy\nBits/(Pixel*Frame)                       : 0.258\nStream size                              : 552 MiB (82%)\n\nAudio\nID                                       : 192 (0xC0)\nFormat                                   : MPEG Audio\nFormat version                           : Version 1\nFormat profile                           : Layer 2\nDuration                                 : 1h 58mn\nBit rate mode                            : Constant\nBit rate                                 : 128 Kbps\nChannel(s)                               : 2 channels\nSampling rate                            : 48.0 KHz\nCompression mode                         : Lossy\nStream size                              : 108 MiB (16%)","torrent":{"xt":"urn:btih:df09ddde2262d750c2ff3bd3aee5bedc2314f110","amp;dn":"Rangrezz+2013+Hindi+Movies+DVDScr+Sample+Included+%7E+rDX","amp;tr":["udp%3A%2F%2Ftracker.openbittorrent.com%3A80","udp%3A%2F%2Fopen.demonii.com%3A1337","udp%3A%2F%2Ftracker.coppersurfer.tk%3A6969","udp%3A%2F%2Fexodus.desync.com%3A6969"],"infoHash":"df09ddde2262d750c2ff3bd3aee5bedc2314f110","infoHashBuffer":{"type":"Buffer","data":[223,9,221,222,34,98,215,80,194,255,59,211,174,229,190,220,35,20,241,16]},"announce":[],"urlList":[]}}